<?xml version="1.0" encoding="utf-8"?>
<!-- Generator: Adobe Illustrator 21.0.2, SVG Export Plug-In . SVG Version: 6.00 Build 0)  -->
<svg version="1.1" id="Layer_1" xmlns="http://www.w3.org/2000/svg" xmlns:xlink="http://www.w3.org/1999/xlink" x="0px" y="0px"
	 viewBox="0 0 200 200" style="enable-background:new 0 0 200 200;" xml:space="preserve">
<style type="text/css">
	.st0{fill:none;stroke:#000000;stroke-width:3;stroke-linecap:round;stroke-miterlimit:10;}
</style>
<path class="st0" d="M44.2,172.6l0-120.8c0-2.7,0.9-6.9,2.1-9.4c7.6-15.9,12-14.6,14-14.9c0.2,0,6.3,0,6.5,0l86.1,0
	c2.3,0,3.8,2.6,2.6,4.6c-5.9,9.6-5.7,22.1-5.7,22.1v75.1"/>
<line class="st0" x1="67.3" y1="109.3" x2="134.7" y2="109.3"/>
<line class="st0" x1="67.3" y1="60.6" x2="134.7" y2="60.6"/>
<line class="st0" x1="67.3" y1="84.9" x2="134.7" y2="84.9"/>
<line class="st0" x1="44.2" y1="172.6" x2="102.6" y2="172.6"/>
<line class="st0" x1="131.2" y1="126.9" x2="131.2" y2="179.3"/>
<line class="st0" x1="105.1" y1="153.1" x2="157.4" y2="153.1"/>
<circle class="st0" cx="56.8" cy="60.6" r="2.6"/>
<circle class="st0" cx="56.8" cy="84.9" r="2.6"/>
<circle class="st0" cx="56.8" cy="109.3" r="2.6"/>
</svg>
