<?xml version="1.0" encoding="utf-8"?>
<!-- Generator: Adobe Illustrator 21.0.2, SVG Export Plug-In . SVG Version: 6.00 Build 0)  -->
<svg version="1.1" id="Layer_1" xmlns="http://www.w3.org/2000/svg" xmlns:xlink="http://www.w3.org/1999/xlink" x="0px" y="0px"
	 viewBox="0 0 200 200" style="enable-background:new 0 0 200 200;" xml:space="preserve">
<style type="text/css">
	.st0{fill:#826F84;}
	.st1{fill:#4D334E;}
	.st2{fill:#FFFFFF;}
	.st3{fill:none;stroke:#00BF22;stroke-width:2;stroke-linecap:round;stroke-miterlimit:10;}
	.st4{fill:#198409;}
	.st5{fill:#0A5E03;}
</style>
<g id="XMLID_1_">
	<g>
		<path class="st0" d="M100,61.5c62.2,0,67.7,31.6,58.6,62.5c-13.9,47.3-58.6,64.9-58.6,64.9V61.5z"/>
		<path class="st1" d="M100,61.5v127.4c0,0-44.7-17.6-58.6-64.9C32.3,93.1,37.8,61.5,100,61.5z"/>
	</g>
	<g>
	</g>
</g>
<g>
	<line class="st2" x1="87.3" y1="96.3" x2="40.9" y2="96.3"/>
	<path class="st0" d="M87.3,96.7c-1.9,1.5-3.9,2.5-5.8,3.3c-1.9,0.9-3.9,1.5-5.8,2c-3.9,1-7.7,1.5-11.6,1.5c-3.9,0-7.7-0.5-11.6-1.5
		c-1.9-0.5-3.9-1.2-5.8-2c-1.9-0.9-3.9-1.9-5.8-3.3v-0.8l5.8-0.2l5.8-0.1l11.6-0.1l11.6,0.1l5.8,0.1l5.8,0.2V96.7z"/>
</g>
<g>
	<line class="st2" x1="157" y1="122.4" x2="107.5" y2="122.4"/>
	<path class="st1" d="M157,122.8c-2.1,1.5-4.1,2.5-6.2,3.3c-2.1,0.9-4.1,1.5-6.2,2c-4.1,1-8.3,1.5-12.4,1.5c-4.1,0-8.3-0.5-12.4-1.5
		c-2.1-0.5-4.1-1.2-6.2-2c-2.1-0.9-4.1-1.9-6.2-3.3V122l6.2-0.2l6.2-0.1l12.4-0.1l12.4,0.1l6.2,0.1l6.2,0.2V122.8z"/>
</g>
<g>
	<line class="st2" x1="87.3" y1="154.3" x2="61.7" y2="154.3"/>
	<path class="st0" d="M87.3,154.7c-1.1,1.5-2.1,2.5-3.2,3.3c-1.1,0.9-2.1,1.5-3.2,2c-2.1,1-4.3,1.5-6.4,1.5c-2.1,0-4.3-0.5-6.4-1.5
		c-1.1-0.5-2.1-1.2-3.2-2c-1.1-0.9-2.1-1.9-3.2-3.3v-0.8l3.2-0.2l3.2-0.1c2.1-0.1,4.3-0.1,6.4-0.1c2.1,0,4.3,0,6.4,0.1l3.2,0.1
		l3.2,0.2V154.7z"/>
</g>
<path class="st3" d="M109,56.5"/>
<path class="st3" d="M91.4,56.5"/>
<path class="st4" d="M100.4,13.5c26.6,0,28.9,5.8,25.1,11.4c-5.9,8.6-25.1,11.8-25.1,11.8"/>
<path class="st4" d="M100.3,35.1c22.7,0.2,24.6,6,21.2,11.7c-5.2,8.7-21.5,11.8-21.5,11.8"/>
<path class="st5" d="M100.4,13.5c-25.5,0-27.7,11.2-24,22.1c5.7,16.7,24,23,24,23"/>
<path class="st2" d="M128.7,20.1"/>
<path class="st2" d="M128.9,45.2"/>
</svg>
