<svg id="Layer_1" data-name="Layer 1" xmlns="http://www.w3.org/2000/svg" viewBox="0 0 133.6 183.53"><defs><style>.cls-1{fill:#fff;}.cls-2{fill:#826f84;}.cls-3{fill:#4d334e;}.cls-4{fill:none;stroke:#00bf22;stroke-linecap:round;stroke-miterlimit:10;stroke-width:2px;}.cls-5{fill:#198409;}.cls-6{fill:#0a5e03;}</style></defs><title>turnipLogoNew</title><path class="cls-1" d="M100.33,8.79c35.88,0,34.75,11.29,28.92,17.92-2.61,3-8.67,7.46-8.67,7.46" transform="translate(-33.42 -8.79)"/><path class="cls-1" d="M100.31,62.13S79.35,54.75,72.84,35C68.58,22,71.15,8.79,100.31,8.79c0,0,28.26,1.8,29.89,8.2s-9.61,17.18-9.61,17.18c5.56,3.13,11.86,10-.58,19.76a40.9,40.9,0,0,1-20.2,8.19" transform="translate(-33.42 -8.79)"/><path class="cls-1" d="M100.39,56.32c66.77.06,72.69,33.78,62.91,66.74-14.48,48.75-59.81,67.94-62.91,69.2Z" transform="translate(-33.42 -8.79)"/><path class="cls-1" d="M100.39,56.32V192.25l-.17.06S52.1,173.54,37.12,123.06c-9.79-33-3.86-66.74,63.11-66.74Z" transform="translate(-33.42 -8.79)"/><path class="cls-2" d="M100.43,60.53c62,0,67.46,31.51,58.42,62.28-13.87,47.08-58.42,64.64-58.42,64.64Z" transform="translate(-33.42 -8.79)"/><path class="cls-3" d="M100.43,60.53V187.46S55.91,169.9,42,122.81C33,92,38.45,60.53,100.43,60.53Z" transform="translate(-33.42 -8.79)"/><line class="cls-1" x1="54.39" y1="86.43" x2="8.14" y2="86.43"/><path class="cls-2" d="M87.81,95.57a36,36,0,0,1-11.56,4.68,51.65,51.65,0,0,1-11.56,1.27,52.58,52.58,0,0,1-11.56-1.29,36.39,36.39,0,0,1-11.56-4.66v-.7l5.78-.17,5.78-.06,11.56-.12,11.56.12L82,94.7l5.78.17Z" transform="translate(-33.42 -8.79)"/><line class="cls-1" x1="123.83" y1="112.48" x2="74.51" y2="112.48"/><path class="cls-3" d="M157.25,121.62a39.89,39.89,0,0,1-12.33,4.68,58.58,58.58,0,0,1-12.33,1.27,59.64,59.64,0,0,1-12.33-1.29,40.32,40.32,0,0,1-12.33-4.66v-.7l6.17-.17,6.17-.06,12.33-.12,12.33.12,6.17.06,6.17.17Z" transform="translate(-33.42 -8.79)"/><line class="cls-1" x1="54.39" y1="144.21" x2="28.87" y2="144.21"/><path class="cls-2" d="M87.81,153.35A16.66,16.66,0,0,1,81.43,158,16.47,16.47,0,0,1,75,159.3a16.8,16.8,0,0,1-12.76-5.95v-.7l3.19-.17,3.19-.1c2.13-.06,4.25-.05,6.38-.08s4.25,0,6.38.08l3.19.1,3.19.17Z" transform="translate(-33.42 -8.79)"/><path class="cls-4" d="M109.4,55.59" transform="translate(-33.42 -8.79)"/><path class="cls-4" d="M91.92,55.59" transform="translate(-33.42 -8.79)"/><path class="cls-5" d="M100.89,12.79c26.49,0,28.83,5.74,25,11.36-5.92,8.59-25,11.79-25,11.79" transform="translate(-33.42 -8.79)"/><path class="cls-5" d="M100.78,34.31c22.57.2,24.47,6,21.09,11.66-5.17,8.64-21.43,11.73-21.43,11.73" transform="translate(-33.42 -8.79)"/><path class="cls-6" d="M100.89,12.79c-25.4,0-27.63,11.14-23.93,22,5.67,16.66,23.93,22.88,23.93,22.88" transform="translate(-33.42 -8.79)"/><path class="cls-1" d="M129,19.34" transform="translate(-33.42 -8.79)"/><path class="cls-1" d="M129.25,44.31" transform="translate(-33.42 -8.79)"/></svg>