<?xml version="1.0" encoding="utf-8"?>
<!-- Generator: Adobe Illustrator 21.0.2, SVG Export Plug-In . SVG Version: 6.00 Build 0)  -->
<svg version="1.1" id="Layer_1" xmlns="http://www.w3.org/2000/svg" xmlns:xlink="http://www.w3.org/1999/xlink" x="0px" y="0px"
	 viewBox="0 0 200 200" style="enable-background:new 0 0 200 200;" xml:space="preserve">
<style type="text/css">
	.st0{fill:#FFFFFF;}
	.st1{fill:#33364E;}
	.st2{fill:#826F84;}
	.st3{fill:#4D334E;}
	.st4{fill:none;stroke:#00BF22;stroke-width:2;stroke-linecap:round;stroke-miterlimit:10;}
	.st5{fill:#198409;}
	.st6{fill:#0A5E03;}
</style>
<circle class="st0" cx="99" cy="100" r="90.8"/>
<circle class="st1" cx="99.5" cy="98.5" r="74.9"/>
<g id="XMLID_1_">
	<g>
		<path class="st2" d="M99.1,53.6c50.8,0,55.2,25.8,47.8,51c-11.4,38.6-47.8,53-47.8,53V53.6z"/>
		<path class="st3" d="M99.1,53.6v104c0,0-36.5-14.4-47.9-53C43.8,79.4,48.3,53.6,99.1,53.6z"/>
	</g>
	<g>
	</g>
</g>
<g>
	<line class="st0" x1="82.5" y1="102.5" x2="67.8" y2="102.5"/>
	<path class="st2" d="M82.5,102.9c-1.2,2.5-2.5,3.8-3.7,4.7c-1.2,0.9-2.5,1.3-3.7,1.3c-1.2,0-2.5-0.4-3.7-1.3
		c-1.2-0.9-2.5-2.2-3.7-4.7v-0.7c1.2-0.1,2.5-0.2,3.7-0.3c1.2-0.1,2.5-0.1,3.7-0.1c1.2,0,2.5,0,3.7,0.1c1.2,0.1,2.5,0.1,3.7,0.3
		V102.9z"/>
</g>
<g>
	<line class="st0" x1="130.2" y1="102.6" x2="117.7" y2="102.6"/>
	<path class="st3" d="M130.2,102.9c-1,2.5-2.1,3.8-3.1,4.7c-1,0.9-2.1,1.3-3.1,1.3c-1,0-2.1-0.4-3.1-1.3c-1-0.9-2.1-2.2-3.1-4.7
		v-0.7c1-0.1,2.1-0.2,3.1-0.3c1-0.1,2.1-0.1,3.1-0.1c1,0,2.1,0,3.1,0.1c1,0.1,2.1,0.1,3.1,0.3V102.9z"/>
</g>
<g>
	<line class="st0" x1="110" y1="109.7" x2="89.1" y2="109.7"/>
	<path class="st2" d="M110,110.1c-1.7,2.5-3.5,3.8-5.2,4.7c-1.7,0.9-3.5,1.3-5.2,1.3c-1.7,0-3.5-0.4-5.2-1.3
		c-1.7-0.9-3.5-2.2-5.2-4.7v-0.7l2.6-0.2l2.6-0.1c1.7-0.1,3.5-0.1,5.2-0.1c1.7,0,3.5,0,5.2,0.1l2.6,0.1l2.6,0.2V110.1z"/>
</g>
<path class="st4" d="M106.4,43"/>
<path class="st4" d="M92.1,43"/>
<path class="st5" d="M141.8,66.9c0,21.7-11.4,23.6-22.5,20.4c-17-4.9-23.4-20.4-23.4-20.4"/>
<path class="st5" d="M99.1,66.8c-0.4,18.5-11.9,20-23.1,17.3c-17.1-4.2-23.3-17.6-23.3-17.6"/>
<path class="st6" d="M141.8,66.9c0-20.8-22.1-22.6-43.7-19.6C65,52,52.7,66.9,52.7,66.9"/>
<path class="st0" d="M128.8,83.4"/>
<path class="st0" d="M122.6,53.4"/>
</svg>
