<svg id="Layer_1" data-name="Layer 1" xmlns="http://www.w3.org/2000/svg" viewBox="0 0 146.1 194.82"><defs><style>.cls-1{fill:#fff;}.cls-2{fill:#826f84;}.cls-3{fill:#4d334e;}.cls-4{fill:none;stroke:#00bf22;stroke-linecap:round;stroke-miterlimit:10;stroke-width:2px;}.cls-5{fill:#198409;}.cls-6{fill:#0a5e03;}</style></defs><title>turnipLogoNew</title><path class="cls-1" d="M100.33,8.79c35.88,0,34.75,11.29,28.92,17.92-2.61,3-8.67,7.46-8.67,7.46" transform="translate(-27.41 -2.5)"/><path class="cls-1" d="M101.5,67.13S75.7,58.19,67.68,34.21C62.43,18.54,65.6,2.5,101.5,2.5c0,0,32.62,0,36.51,15.09,2,7.76-11.54,15.67-11.54,15.67,6.85,3.79,14.6,12.07-.72,23.94a50.86,50.86,0,0,1-24.88,9.93" transform="translate(-27.41 -2.5)"/><path class="cls-1" d="M100.66,51.1c73,.07,79.49,36.32,68.79,71.76-15.83,52.41-65.41,73-68.79,74.4Z" transform="translate(-27.41 -2.5)"/><path class="cls-1" d="M100.66,51.1V197.25l-.18.07s-52.63-20.19-69-74.47c-10.7-35.47-4.22-71.76,69-71.76Z" transform="translate(-27.41 -2.5)"/><path class="cls-2" d="M100.43,60.53c62,0,67.46,31.51,58.42,62.28-13.87,47.08-58.42,64.64-58.42,64.64Z" transform="translate(-27.41 -2.5)"/><path class="cls-3" d="M100.43,60.53V187.46S55.91,169.9,42,122.81C33,92,38.45,60.53,100.43,60.53Z" transform="translate(-27.41 -2.5)"/><line class="cls-1" x1="60.39" y1="92.72" x2="14.14" y2="92.72"/><path class="cls-2" d="M87.81,95.57a36,36,0,0,1-11.56,4.68,51.65,51.65,0,0,1-11.56,1.27,52.58,52.58,0,0,1-11.56-1.29,36.39,36.39,0,0,1-11.56-4.66v-.7l5.78-.17,5.78-.06,11.56-.12,11.56.12L82,94.7l5.78.17Z" transform="translate(-27.41 -2.5)"/><line class="cls-1" x1="129.83" y1="118.77" x2="80.51" y2="118.77"/><path class="cls-3" d="M157.25,121.62a39.89,39.89,0,0,1-12.33,4.68,58.58,58.58,0,0,1-12.33,1.27,59.64,59.64,0,0,1-12.33-1.29,40.32,40.32,0,0,1-12.33-4.66v-.7l6.17-.17,6.17-.06,12.33-.12,12.33.12,6.17.06,6.17.17Z" transform="translate(-27.41 -2.5)"/><line class="cls-1" x1="60.39" y1="150.5" x2="34.87" y2="150.5"/><path class="cls-2" d="M87.81,153.35A16.66,16.66,0,0,1,81.43,158,16.47,16.47,0,0,1,75,159.3a16.8,16.8,0,0,1-12.76-5.95v-.7l3.19-.17,3.19-.1c2.13-.06,4.25-.05,6.38-.08s4.25,0,6.38.08l3.19.1,3.19.17Z" transform="translate(-27.41 -2.5)"/><path class="cls-4" d="M109.4,55.59" transform="translate(-27.41 -2.5)"/><path class="cls-4" d="M91.92,55.59" transform="translate(-27.41 -2.5)"/><path class="cls-5" d="M100.89,12.79c26.49,0,28.83,5.74,25,11.36-5.92,8.59-25,11.79-25,11.79" transform="translate(-27.41 -2.5)"/><path class="cls-5" d="M100.78,34.31c22.57.2,24.47,6,21.09,11.66-5.17,8.64-21.43,11.73-21.43,11.73" transform="translate(-27.41 -2.5)"/><path class="cls-6" d="M100.89,12.79c-25.4,0-27.63,11.14-23.93,22,5.67,16.66,23.93,22.88,23.93,22.88" transform="translate(-27.41 -2.5)"/><path class="cls-1" d="M129,19.34" transform="translate(-27.41 -2.5)"/><path class="cls-1" d="M129.25,44.31" transform="translate(-27.41 -2.5)"/></svg>