<svg xmlns="http://www.w3.org/2000/svg" viewBox="0 0 127.29 178.62"><defs><style>.cls-1{fill:#6c4119;}.cls-1,.cls-2,.cls-3,.cls-5{stroke:#fff;stroke-miterlimit:10;}.cls-2{fill:#524496;}.cls-2,.cls-3{stroke-width:5px;}.cls-3{fill:#7b6cb1;}.cls-4{fill:#715fa9;}.cls-5{fill:#00ac6c;stroke-width:3px;}.cls-6{fill:#009156;}.cls-7{fill:#03905a;}</style></defs><title>Asset 6</title><g id="Layer_2" data-name="Layer 2"><g id="Layer_1-2" data-name="Layer 1"><path class="cls-1" d="M50.11,40.46S59.93,51.13,59,58.19s4.71,0,4.71,0-1.77-10-10.6-20.6S50.11,40.46,50.11,40.46Z"/><path class="cls-1" d="M72.31,34.88s-7.41,9.07-5.92,16.49a17.69,17.69,0,0,1-2.64,13L61.64,51.56s-1.67-1.4,6-19.48S72.31,34.88,72.31,34.88Z"/><path class="cls-2" d="M124.79,94.87c0-24-27.38-43.52-61.15-43.52S2.5,70.83,2.5,94.87c0,13.19,8.25,25,21.26,33,0,0,33.74,23.76,39.88,43,0,0,11.76-26.12,38.25-42C115.85,120.84,124.79,108.6,124.79,94.87Z"/><path class="cls-3" d="M63.65,51.35c-.72,0-1.44,0-2.16,0V166.55a31.77,31.77,0,0,1,2.16,5.06s11.76-26.28,38.25-42.3c14-8,22.89-20.34,22.89-34.16C124.79,71,97.41,51.35,63.65,51.35Z"/><path class="cls-4" d="M93.72,96.23c0-23.61-13.47-42.75-30.08-42.75S33.57,72.62,33.57,96.23c0,13,4.06,24.55,10.46,32.39,0,0,16.6,23.34,19.62,42.23,0,0,5.78-25.65,18.82-41.28C89.32,121.73,93.72,109.71,93.72,96.23Z"/><ellipse class="cls-5" cx="93.57" cy="18.61" rx="29.44" ry="13.43" transform="translate(0.47 39.46) rotate(-23.87)"/><ellipse class="cls-5" cx="38.05" cy="22.67" rx="9.22" ry="23.5" transform="translate(-4.88 33.54) rotate(-45)"/><path class="cls-6" d="M67.77,29.2a5.93,5.93,0,0,0,.29.84c2.85,6.44,16.6,6.59,30.71.35,13.89-6.15,22.95-16.2,20.51-22.65Z"/><path class="cls-7" d="M23.12,6.64a3.51,3.51,0,0,0-.66.51c-3.37,3.37.86,13.06,9.44,21.64,8.34,8.34,17.72,12.55,21.33,9.68Z"/></g></g></svg>